# xmcd
#
# Track frame offsets:
#  150
#  13208
#  28891
#  42266
#  54744
#  66323
#  78316
#  89490
#  103467
#  114767
#  126454
#  137905
#  148476
#  159678
#  170593
#  179657
#
# Disc length: 2570 seconds
#
# Revision: 0
# Processed by: cddbd v1.5.1PL0 Copyright (c) Steve Scherf et al.
# Submitted via: Collectorz.com Music Collector 6.9
#
DISCID=fb0a0810
DTITLE=Various Artist - Country Blues
DYEAR=2004
DGENRE=Country
TTITLE0=Hank Williams - Wedding Bells
TTITLE1=Townes Van Zandt - No Place To Fall
TTITLE2=Ernest Tubb - Yesterday's Tears
TTITLE3=Willie Nelson - She's Not For You
TTITLE4=Moon Mulligan - You Don't Have To Be A Baby To Cry
TTITLE5=Roger Miller - I Catch Myself Crying
TTITLE6=Hank Locklin - Down On My Kness
TTITLE7=Jerry Lee Lewis - Cold, Cold Heart
TTITLE8=Tom Jones - I'm So Lonesome I Could Cry
TTITLE9=Waylon Jennings - Crying
TTITLE10=Freddy Fender - Before The Teardrop Falls
TTITLE11=Freddy Fender - A Man Can Cry
TTITLE12=Patsy Cline - Cry Not For Me
TTITLE13=Johnny Cash - Cry, Cry, Cry
TTITLE14=Gene Autry - Blue Eyes Crying in The Rain
TTITLE15=Eddy Arnold - Why Should I Cry
EXTD=
EXTT0=
EXTT1=
EXTT2=
EXTT3=
EXTT4=
EXTT5=
EXTT6=
EXTT7=
EXTT8=
EXTT9=
EXTT10=
EXTT11=
EXTT12=
EXTT13=
EXTT14=
EXTT15=
PLAYORDER=
